<svg width="45" height="45" viewBox="0 0 45 45" fill="none" xmlns="http://www.w3.org/2000/svg">
<circle cx="22.5" cy="22.5" r="22.5" fill="#784FFE" fill-opacity="0.2"/>
<path d="M16 18.5H28C28 16.658 27.7045 15.1625 27.1345 14H16.957C16.3165 15.509 16 17.006 16 18.5ZM27.811 20H16.189C16.5227 21.2874 17.2744 22.4275 18.3261 23.2414C19.3779 24.0553 20.6701 24.4969 22 24.4969C23.3299 24.4969 24.6221 24.0553 25.6739 23.2414C26.7256 22.4275 27.4773 21.2874 27.811 20V20ZM22.75 25.9625V32H25C25.1989 32 25.3897 32.079 25.5303 32.2197C25.671 32.3603 25.75 32.5511 25.75 32.75C25.75 32.9489 25.671 33.1397 25.5303 33.2803C25.3897 33.421 25.1989 33.5 25 33.5H19C18.8011 33.5 18.6103 33.421 18.4697 33.2803C18.329 33.1397 18.25 32.9489 18.25 32.75C18.25 32.5511 18.329 32.3603 18.4697 32.2197C18.6103 32.079 18.8011 32 19 32H21.25V25.9625C19.4 25.7766 17.6851 24.9101 16.4378 23.5312C15.1906 22.1523 14.5 20.3593 14.5 18.5C14.5 16.493 14.9995 14.4935 16 12.5H28C29.0005 14.0075 29.5 16.007 29.5 18.5C29.5 20.3593 28.8094 22.1523 27.5622 23.5312C26.3149 24.9101 24.6 25.7766 22.75 25.9625V25.9625Z" fill="#784FFE"/>
</svg>
