<svg width="45" height="45" viewBox="0 0 45 45" fill="none" xmlns="http://www.w3.org/2000/svg">
<circle cx="22.5" cy="22.5" r="22.5" fill="#784FFE" fill-opacity="0.2"/>
<path d="M20.9688 17.7499H23.0312V22.9999H30.7188C30.9923 22.9999 31.2546 22.8912 31.448 22.6978C31.6414 22.5044 31.75 22.2421 31.75 21.9686V18.7811C31.75 18.5076 31.6414 18.2453 31.448 18.0519C31.2546 17.8585 30.9923 17.7499 30.7188 17.7499H27.9147C28.2944 16.9678 28.3828 16.076 28.1641 15.2346C27.9454 14.3932 27.4338 13.6573 26.7213 13.1592C26.0088 12.6611 25.142 12.4334 24.2766 12.5169C23.4113 12.6005 22.6041 12.9898 22 13.615C21.3949 12.9932 20.5884 12.6069 19.7246 12.5251C18.8608 12.4432 17.9961 12.6712 17.285 13.1683C16.5739 13.6654 16.0627 14.3992 15.8428 15.2385C15.623 16.0778 15.7088 16.968 16.0848 17.7499H13.2812C13.0077 17.7499 12.7454 17.8585 12.552 18.0519C12.3586 18.2453 12.25 18.5076 12.25 18.7811V21.9686C12.25 22.2421 12.3586 22.5044 12.552 22.6978C12.6478 22.7936 12.7615 22.8695 12.8866 22.9214C13.0117 22.9732 13.1458 22.9999 13.2812 22.9999H20.9688V17.7499ZM23.0312 16.1561C23.0312 15.8409 23.1247 15.5328 23.2998 15.2707C23.475 15.0086 23.7239 14.8043 24.0151 14.6837C24.3063 14.5631 24.6268 14.5315 24.9359 14.593C25.2451 14.6545 25.5291 14.8063 25.752 15.0292C25.9748 15.2521 26.1266 15.536 26.1881 15.8452C26.2496 16.1543 26.2181 16.4748 26.0974 16.766C25.9768 17.0572 25.7725 17.3061 25.5104 17.4813C25.2483 17.6564 24.9402 17.7499 24.625 17.7499H23.0312V16.1561ZM17.7812 16.1561C17.7812 15.7334 17.9492 15.3281 18.248 15.0292C18.5469 14.7303 18.9523 14.5624 19.375 14.5624C19.7977 14.5624 20.2031 14.7303 20.502 15.0292C20.8008 15.3281 20.9688 15.7334 20.9688 16.1561V17.7499H19.375C18.9523 17.7499 18.5469 17.582 18.248 17.2831C17.9492 16.9842 17.7812 16.5788 17.7812 16.1561V16.1561ZM23.0312 33.4999H29.2188C29.4923 33.4999 29.7546 33.3912 29.948 33.1978C30.1414 33.0044 30.25 32.7421 30.25 32.4686V24.4999H23.0312V33.4999ZM13.75 32.4686C13.75 32.7421 13.8586 33.0044 14.052 33.1978C14.2454 33.3912 14.5077 33.4999 14.7812 33.4999H20.9688V24.4999H13.75V32.4686Z" fill="#784FFE"/>
</svg>
